<svg xmlns="http://www.w3.org/2000/svg" viewBox="0 -10 40 230"><style>@font-face{font-family:&apos;Arvo&apos;;font-style:normal;font-weight:700;src:local(&apos;Arvo-Bold&apos;),url(../fonts/Arvo-Bold.woff2) format(&apos;woff2&apos;)}:root{--dark-green:hsl(160, 9%, 34%);--pale-green:hsl(58, 13%, 56%);--buff:#F3D69B;--tan:#E79D5E;--orange:hsl(15, 65%, 53%);--red:#d00;--darkgrey:#2D2C2C;--midgrey:#474748}.header text,.labels text{font-family:Arvo;text-anchor:middle}.labels text{fill:var(--buff)}.header text{fill:var(--tan)}.labels rect{fill:var(--dark-green);xstroke:var(--orange);xstroke-width:2px}.header rect{fill:var(--darkgrey)}</style><g class="header" font-size="8"><rect width="40" height="16" x="0" y="0" rx="2" ry="2"/><text x="20" y="10">directory</text></g><g class="labels" font-size="12"><g class="table" transform="translate(0,20)"><rect width="40" height="16" x="0" y="0" rx="2" ry="2"/><text x="20" y="12">head</text></g><g class="table" transform="translate(0,20) translate(0,20)"><rect width="40" height="16" x="0" y="0" rx="2" ry="2"/><text x="20" y="12">hhea</text></g><g class="table" transform="translate(0,20) translate(0,40)"><rect width="40" height="16" x="0" y="0" rx="2" ry="2"/><text x="20" y="12">maxp</text></g><g class="table" transform="translate(0,20) translate(0,60)"><rect width="40" height="16" x="0" y="0" rx="2" ry="2"/><text x="20" y="12">OS/2</text></g><g class="table" transform="translate(0,20) translate(0,80)"><rect width="40" height="16" x="0" y="0" rx="2" ry="2"/><text x="20" y="12">hmtx</text></g><g class="table" transform="translate(0,20) translate(0,100)"><rect width="40" height="16" x="0" y="0" rx="2" ry="2"/><text x="20" y="12">cmap</text></g><g class="table" transform="translate(0,20) translate(0,120)"><rect width="40" height="16" x="0" y="0" rx="2" ry="2"/><text x="20" y="12">loca</text></g><g class="table" transform="translate(0,20) translate(0,140)"><rect width="40" height="16" x="0" y="0" rx="2" ry="2"/><text x="20" y="12">glyf</text></g><g class="table" transform="translate(0,20) translate(0,160)"><rect width="40" height="16" x="0" y="0" rx="2" ry="2"/><text x="20" y="12">name</text></g><g class="table" transform="translate(0,20) translate(0,180)"><rect width="40" height="16" x="0" y="0" rx="2" ry="2"/><text x="20" y="12">post</text></g></g></svg>